# xmcd
#
# Track frame offsets:
#	150
#	14010
#	43032
#	56739
#	79916
#	94227
#	117415
#	127210
#	140241
#	159172
#	181968
#	194164
#	210514
#
# Disc length: 3130 seconds
#
# Revision: 0
# Processed by: cddbd v1.5.2PL0 Copyright (c) Steve Scherf et al.
# Submitted via: EasyCDDAExtractor 16.0.1.1
#
DISCID=c70c380d
DTITLE=Iris Dement - Lifeline
DYEAR=2004
DGENRE=Country
TTITLE0=I've Got That Old Time Religion in My Heart
TTITLE1=Blessed Assurance
TTITLE2=Fill My Way With Love
TTITLE3=Hide Thou Me
TTITLE4=The Old Gospel Ship
TTITLE5=Sweet Hour of Prayer
TTITLE6=That Glad Reunion Day
TTITLE7=Leaning on the Everlasting Arms
TTITLE8=He Reached Down
TTITLE9=Near the Cross
TTITLE10=I Never Shall Forget the Day
TTITLE11=I Don't Want to Get Adjusted (To This World)
TTITLE12=God Walks the Dark Hills
EXTD=
EXTT0=
EXTT1=
EXTT2=
EXTT3=
EXTT4=
EXTT5=
EXTT6=
EXTT7=
EXTT8=
EXTT9=
EXTT10=
EXTT11=
EXTT12=
PLAYORDER=
